<svg fill="none" height="19" viewBox="0 0 96 19" width="96" xmlns="http://www.w3.org/2000/svg"><g fill="#eb5757"><path d="m39.082 10.188-2.114 7.812h-2.646l-1.232-5.068-1.274 5.068h-2.632l-2.128-7.812h2.394l1.106 5.586 1.316-5.586h2.534l1.33 5.558 1.092-5.558zm2.117-.812c-.42 0-.7654-.12133-1.036-.364-.2614-.252-.392-.56-.392-.924 0-.37333.1306-.68133.392-.924.2706-.252.616-.378 1.036-.378.4106 0 .7466.126 1.008.378.2706.24267.406.55067.406.924 0 .364-.1354.672-.406.924-.2614.24267-.5974.364-1.008.364zm1.19.812v7.812h-2.394v-7.812zm6.4949-.084c.9146 0 1.6426.2987 2.184.896.5506.588.826 1.4.826 2.436v4.564h-2.38v-4.242c0-.5227-.1354-.9287-.406-1.218-.2707-.2893-.6347-.434-1.092-.434-.4574 0-.8214.1447-1.092.434-.2707.2893-.406.6953-.406 1.218v4.242h-2.394v-7.812h2.394v1.036c.2426-.3453.5693-.616.98-.812.4106-.2053.8726-.308 1.386-.308zm4.1976 3.976c0-.8027.1493-1.5073.448-2.114.308-.6067.7233-1.0733 1.246-1.4.5226-.3267 1.106-.49 1.75-.49.5133 0 .98.1073 1.4.322.4293.2147.7653.504 1.008.868v-3.626h2.394v10.36h-2.394v-1.12c-.224.3733-.546.672-.966.896-.4107.224-.8914.336-1.442.336-.644 0-1.2274-.1633-1.75-.49-.5227-.336-.938-.8073-1.246-1.414-.2987-.616-.448-1.3253-.448-2.128zm5.852.014c0-.5973-.168-1.0687-.504-1.414-.3267-.3453-.728-.518-1.204-.518s-.882.1727-1.218.518c-.3267.336-.49.8027-.49 1.4s.1633 1.0733.49 1.428c.336.3453.742.518 1.218.518s.8773-.1727 1.204-.518c.336-.3453.504-.8167.504-1.414zm6.5199-2.8c.224-.364.546-.658.966-.882s.9007-.336 1.442-.336c.644 0 1.2273.1633 1.75.49s.9333.7933 1.232 1.4c.308.6067.462 1.3113.462 2.114s-.154 1.512-.462 2.128c-.2987.6067-.7093 1.078-1.232 1.414-.5227.3267-1.106.49-1.75.49-.5507 0-1.0313-.1073-1.442-.322-.4107-.224-.7327-.518-.966-.882v1.092h-2.394v-10.36h2.394zm3.416 2.786c0-.5973-.168-1.064-.504-1.4-.3267-.3453-.7327-.518-1.218-.518-.476 0-.882.1727-1.218.518-.3267.3453-.49.8167-.49 1.414s.1633 1.0687.49 1.414c.336.3453.742.518 1.218.518s.882-.1727 1.218-.518c.336-.3547.504-.8307.504-1.428zm8.452-3.976c.9146 0 1.6426.2987 2.184.896.5506.588.826 1.4.826 2.436v4.564h-2.38v-4.242c0-.5227-.1354-.9287-.406-1.218-.2707-.2893-.6347-.434-1.092-.434-.4574 0-.8214.1447-1.092.434-.2707.2893-.406.6953-.406 1.218v4.242h-2.394v-7.812h2.394v1.036c.2426-.3453.5693-.616.98-.812.4106-.2053.8726-.308 1.386-.308zm7.0676 1.19c.224-.364.546-.658.966-.882s.9006-.336 1.442-.336c.644 0 1.2273.1633 1.75.49.5226.3267.9333.7933 1.232 1.4.308.6067.462 1.3113.462 2.114s-.154 1.512-.462 2.128c-.2987.6067-.7094 1.078-1.232 1.414-.5227.3267-1.106.49-1.75.49-.5507 0-1.0314-.1073-1.442-.322-.4107-.224-.7327-.518-.966-.882v1.092h-2.394v-10.36h2.394zm3.416 2.786c0-.5973-.168-1.064-.504-1.4-.3267-.3453-.7327-.518-1.218-.518-.476 0-.882.1727-1.218.518-.3267.3453-.49.8167-.49 1.414s.1633 1.0687.49 1.414c.336.3453.742.518 1.218.518s.882-.1727 1.218-.518c.336-.3547.504-.8307.504-1.428z"/><path d="m8.22724 4.5c1.1547-2 4.04146-2 5.19616 0l5.6292 9.75c1.1547 2-.2887 4.5-2.5981 4.5h-11.25835c-2.3094 0-3.75277-2.5-2.59807-4.5z"/></g></svg>